# xmcd
#
# Track frame offsets: 
#        150
#        21452
#        38404
#        57906
#        77484
#        96686
#        114088
#        131340
#        149644
#        169222
#        187825
#        209727
#        226080
#        247083
#        266285
#
# Disc length: 3810 seconds
#
# Revision: 1
# Processed by: cddbd v1.5.1PL2 Copyright (c) Steve Scherf et al.
# Submitted via: ExactAudioCopy v0.95a5
#
DISCID=cd0ee00f
DTITLE=絕色Ⅲ - 樊桐舟
DYEAR=2006
DGENRE=Sonata
TTITLE0=末班車
TTITLE1=如果這都不算愛
TTITLE2=曾經最美
TTITLE3=不要再來傷害我
TTITLE4=別怕我傷心
TTITLE5=如果愛
TTITLE6=光(一下子一輩子)
TTITLE7=守望幸福(原創)
TTITLE8=美麗心情
TTITLE9=最遠的你是我最近的愛
TTITLE10=不管有多苦
TTITLE11=別哭我的愛人
TTITLE12=時光
TTITLE13=我只能愛你
TTITLE14=一生愛你千百回
EXTD=絕色Ⅲ - 樊桐舟\n\n01.\t末班車\t\t04:44\n02.\t如果這都不算愛\t\t0
EXTD=3:46\n03.\t曾經最美\t\t04:20\n04.\t不要再來傷害我\t\t04:21\n05.\t
EXTD=別怕我傷心\t\t04:16\n06.\t如果愛\t\t03:52\n07.\t光(一下子一輩子)\t
EXTD=\t03:50\n08.\t守望幸福(原創)\t\t04:04\n09.\t美麗心情\t\t04:21\n10
EXTD=\t最遠的你是我最近的愛\t\t04:08\n11.\t不管有多苦\t\t04:52\n12.\t
EXTD=別哭我的愛人\t\t03:38\n13.\t時光\t\t04:40\n14.\t我只能愛你\t\t04:
EXTD=16\n15.\t一生愛你千百回\t\t04:20
EXTT0=末班車
EXTT1=
EXTT2=
EXTT3=
EXTT4=
EXTT5=
EXTT6=
EXTT7=
EXTT8=
EXTT9=
EXTT10=
EXTT11=
EXTT12=
EXTT13=
EXTT14=
PLAYORDER=
